Coordinates
version=1
nRows=15
nColumns=34
inDegrees=yes

Units are S.I. units (second, meters, Newtons, ...)
If the header above contains a line with 'inDegrees', this indicates whether rotational values are in degrees (yes) or radians (no).

endheader
time	pelvis_tilt	pelvis_list	pelvis_rotation	pelvis_tx	pelvis_ty	pelvis_tz	hip_flexion_r	hip_adduction_r	hip_rotation_r	knee_angle_r	ankle_angle_r	subtalar_angle_r	mtp_angle_r	hip_flexion_l	hip_adduction_l	hip_rotation_l	knee_angle_l	ankle_angle_l	subtalar_angle_l	mtp_angle_l	lumbar_extension	lumbar_bending	lumbar_rotation	arm_flex_r	arm_add_r	arm_rot_r	elbow_flex_r	pro_sup_r	arm_flex_l	arm_add_l	arm_rot_l	elbow_flex_l	pro_sup_l
      8.28333330	      2.18153539	     -1.64870021	   -175.32491383	      0.07722426	      1.04908695	      0.14359964	     31.52115466	     -3.02551089	      5.65022845	    111.89004936	      3.61794702	    -12.58371605	      0.00000000	     16.34622482	      6.85939334	     -1.70249799	     45.11956697	     11.94537049	    -18.01367269	      0.00000000	    -22.43918801	     -6.32509547	     -9.86890265	    -10.53972870	    -19.46751435	     13.07027073	     82.19418884	     92.40494804	     20.44730549	    -28.63855070	      6.05554776	     82.99649869	     83.35320089
      8.29166670	      2.41668192	     -1.18474521	   -175.26454533	      0.07860401	      1.05232554	      0.14451115	     34.11300608	     -2.70542418	      5.19488658	    109.59590729	      3.87849064	    -13.65293689	      0.00000000	     14.50244540	      6.28671991	     -1.44146520	     44.48555656	     11.54918471	    -17.45710619	      0.00000000	    -21.96387204	     -5.72102708	    -10.76124151	    -11.74068588	    -19.97123942	     13.10568814	     82.68214861	     92.24711268	     21.37496722	    -28.11054320	      6.14678767	     84.76153740	     83.02603047
      8.30000000	      2.77280147	     -0.62919856	   -175.48437813	      0.07983562	      1.05651772	      0.14492059	     36.61724810	     -2.21026263	      4.57227085	    106.88517978	      3.60580817	    -15.91653144	      0.00000000	     12.69775497	      5.47978082	     -1.56825204	     43.56862115	     10.71918507	    -16.37514579	      0.00000000	    -21.31412706	     -5.12436019	    -11.36119680	    -13.18525901	    -20.52425856	     12.80074862	     83.95270859	     92.01917734	     21.60800146	    -27.76158671	      6.14948798	     87.34799498	     82.63648287
      8.30833330	      3.18775615	     -0.11983729	   -175.77728507	      0.08090080	      1.06163495	      0.14516026	     38.80453166	     -1.82046314	      3.70752310	    103.64835266	      3.04863625	    -18.87211986	      0.00000000	     10.86694790	      4.67564203	     -1.82287165	     42.31896071	      9.57380414	    -14.87265770	      0.00000000	    -20.52296346	     -4.59275857	    -11.80499861	    -14.66376719	    -20.96859388	     12.36415884	     85.22920938	     91.78846940	     21.60718800	    -27.26428904	      6.03347611	     90.33124786	     82.26778857
      8.31666670	      3.59267567	      0.24101451	   -176.18502927	      0.08152886	      1.06828256	      0.14502315	     40.55191320	     -1.55055590	      2.72034422	     99.65255684	      2.06126333	    -22.02643139	      0.00000000	      8.84955581	      3.95538717	     -2.36769134	     40.65047161	      8.03377129	    -13.01988352	      0.00000000	    -19.69040554	     -4.23589138	    -12.24409042	    -16.02858776	    -21.12170651	     11.70745933	     86.54273550	     91.50858694	     20.92912702	    -26.86220816	      5.69076394	     93.49640980	     81.82547392
      8.32500000	      4.11563372	      0.51079966	   -176.59309563	      0.08159026	      1.07539104	      0.14442902	     41.97542379	     -1.30920619	      1.64189385	     94.87427223	      1.22298345	    -24.56382154	      0.00000000	      6.88287190	      3.27818115	     -3.04469658	     38.81014927	      6.08847239	    -11.18671053	      0.00000000	    -18.66026483	     -4.12072349	    -12.56968917	    -17.38274368	    -21.24889092	     11.30415956	     87.43389845	     91.30956187	     20.10628794	    -26.45125067	      5.49649949	     96.96093659	     81.52218547
      8.33333330	      4.72437862	      0.66790881	   -177.07015912	      0.08083473	      1.08231945	      0.14353559	     43.06890668	     -1.04355833	      0.62278260	     89.58774010	      0.84271129	    -26.02592073	      0.00000000	      4.98875349	      2.71767495	     -3.89027909	     36.82760720	      3.66216567	     -9.60825723	      0.00000000	    -17.33408873	     -4.23415175	    -12.62626931	    -18.66859284	    -21.43119979	     11.12922483	     87.82288698	     91.23708875	     19.29244317	    -26.01278011	      5.79346176	    100.01113652	     81.47923413
      8.34166670	      5.29438425	      0.52549137	   -177.29674341	      0.07901892	      1.08966538	      0.14254645	     43.73944150	     -0.98730161	     -0.26110485	     83.89503949	     -0.35742921	    -27.68951615	      0.00000000	      2.96500430	      2.50156887	     -4.55879160	     34.59812960	      1.00909808	     -7.72139489	      0.00000000	    -16.21016425	     -4.39868472	    -14.25397505	    -19.20880272	    -21.29552255	     11.31586812	     88.07779173	     91.18361490	     20.07482890	    -25.40753224	      6.12742064	    100.55132831	     81.33870750
      8.35000000	      5.95737262	      0.27150963	   -177.56100810	      0.07656814	      1.09633436	      0.14162650	     44.38493620	     -0.88756377	     -0.96801432	     77.94612882	     -0.50894447	    -27.84398443	      0.00000000	      1.02736809	      2.43028836	     -5.32673549	     32.33400194	     -2.01715034	     -6.03443042	      0.00000000	    -14.92281668	     -4.73333906	    -15.56522163	    -19.78465194	    -21.12502779	     11.49742655	     88.24417740	     91.14191622	     20.67428817	    -24.97787329	      6.77908776	    100.36380797	     81.21735990
      8.35833330	      6.67472410	     -0.18870187	   -177.48434305	      0.07352048	      1.10282718	      0.14122807	     44.77008902	     -1.13335348	     -1.62558691	     71.94318012	     -1.48120213	    -27.12749870	      0.00000000	     -0.74649883	      2.60675035	     -5.74393020	     30.14656029	     -5.23376317	     -4.23523339	      0.00000000	    -13.61365118	     -5.24427966	    -16.98864647	    -20.68012069	    -20.82507288	     11.61738100	     88.50399441	     91.13089627	     20.74905541	    -24.53827326	      7.36352805	    100.39288552	     81.17212996
      8.36666670	      6.84086870	     -0.90590011	   -177.54681190	      0.07033205	      1.10940142	      0.14057238	     44.44160939	     -1.23759101	     -1.70473274	     65.81256397	     -2.96269466	    -26.40391603	      0.00000000	     -3.12441993	      2.98839946	     -6.49974775	     27.93686695	     -9.12700035	     -2.90744711	      0.00000000	    -12.62278583	     -6.26638994	    -17.11243253	    -22.50488234	    -20.08175135	     10.62416112	     89.15838558	     91.02710890	     18.05158611	    -25.35941941	      9.07708431	    103.86339874	     80.97296037
      8.37500000	      7.22352411	     -1.63968841	   -177.34564314	      0.06651689	      1.11599768	      0.14064116	     44.02495676	     -1.55440013	     -1.74791780	     59.57595512	     -4.55984677	    -24.76409672	      0.00000000	     -4.94578604	      3.39727742	     -6.89859408	     26.19407406	    -12.86831762	     -1.73586719	      0.00000000	    -11.60256711	     -6.87879698	    -18.84506698	    -23.13790366	    -19.56963672	     10.45752709	     89.26819808	     91.04192965	     17.88198048	    -24.97817747	      9.41417537	    102.89039453	     80.71534794
      8.38333330	      7.53229126	     -2.48166448	   -176.98703329	      0.06312613	      1.12205794	      0.14126234	     43.37957124	     -2.09327316	     -1.69969253	     53.30589872	     -6.52109312	    -22.59600303	      0.00000000	     -6.43764143	      3.92456999	     -7.00669531	     25.22169317	    -15.79708987	     -0.80049402	      0.00000000	    -10.69852092	     -7.80654916	    -19.53898180	    -24.23079952	    -19.07097933	     10.45816161	     89.46825551	     91.04781182	     16.46501518	    -24.75240204	     10.21279379	    103.17369480	     80.66854288
      8.39166670	      7.24732046	     -3.47125371	   -176.80564020	      0.06003527	      1.12821032	      0.14204062	     41.93482322	     -2.71724754	     -1.37715688	     47.02349562	     -7.32515317	    -19.76609121	      0.00000000	     -8.27908770	      4.68032496	     -6.88264432	     24.80834258	    -18.96643151	     -1.91252279	      0.00000000	    -10.54556376	     -8.72924038	    -20.61010994	    -24.95537518	    -18.41053839	      9.59696501	     89.93098684	     91.10158078	     15.07960334	    -25.22211484	     11.18404517	    104.31923319	     80.35407785
      8.40000000	      6.93786285	     -4.36176188	   -176.41036393	      0.05765112	      1.13341297	      0.14345495	     40.29574062	     -3.58975996	     -1.50837042	     40.62230959	     -8.01577244	    -16.79202430	      0.00000000	     -9.65258285	      5.29111222	     -6.38536865	     25.36504333	    -20.62186217	     -3.39545900	      0.00000000	    -10.70597876	     -9.37929843	    -21.65223023	    -25.51541384	    -18.07816037	      9.23091205	     90.43734489	     91.24265004	     14.71501116	    -24.88092646	     11.85072951	    104.19653757	     79.94499342
